<?xml version="1.0" standalone="no"?>
<!DOCTYPE svg PUBLIC "-//W3C//DTD SVG 20010904//EN"
 "http://www.w3.org/TR/2001/REC-SVG-20010904/DTD/svg10.dtd">
<svg version="1.0" xmlns="http://www.w3.org/2000/svg"
 width="2167.000000pt" height="385.000000pt" viewBox="0 0 2167.000000 385.000000"
 preserveAspectRatio="xMidYMid meet">
<metadata>
Created by potrace 1.15, written by Peter Selinger 2001-2017
</metadata>
<g transform="translate(0.000000,385.000000) scale(0.100000,-0.100000)"
fill="#000000" stroke="none">
<path d="M8060 3771 c-261 -30 -445 -142 -541 -330 -45 -87 -59 -153 -59 -271
0 -86 5 -118 25 -175 32 -90 86 -168 155 -222 52 -41 226 -134 370 -197 153
-68 307 -149 337 -178 49 -47 66 -91 61 -158 -7 -99 -82 -182 -192 -215 -73
-22 -218 -30 -306 -16 -209 32 -276 99 -296 298 l-7 64 -96 -5 c-53 -3 -144
-8 -202 -12 l-106 -6 4 -56 c17 -284 118 -445 345 -552 149 -70 232 -85 463
-85 176 1 210 4 285 23 263 71 456 249 515 477 19 73 19 223 1 290 -32 120
-123 238 -232 298 -78 44 -477 237 -489 237 -2 0 -43 23 -90 50 -111 66 -140
107 -140 196 0 53 4 69 30 106 58 81 157 114 322 106 106 -6 188 -31 234 -70
49 -44 89 -110 101 -171 l13 -60 140 7 c77 3 168 6 203 6 61 0 62 0 62 28 0
52 -39 182 -75 251 -89 169 -257 286 -472 327 -92 17 -276 25 -363 15z"/>
<path d="M17726 3758 c-10 -30 -26 -86 -36 -125 -10 -40 -12 -42 -83 -63 -39
-12 -103 -38 -140 -58 l-68 -37 -80 43 -79 43 -29 -20 c-47 -34 -181 -181
-181 -199 0 -9 19 -46 41 -82 l41 -64 -41 -81 c-22 -44 -49 -109 -60 -145 -13
-47 -24 -66 -37 -68 -11 -2 -49 -13 -86 -24 l-67 -20 -7 -54 c-9 -74 -1 -231
13 -245 6 -6 46 -21 88 -33 l77 -21 22 -70 c13 -38 39 -103 60 -143 31 -62 35
-76 25 -95 -7 -12 -15 -24 -18 -27 -11 -9 -51 -89 -51 -101 0 -18 73 -100 144
-163 l65 -57 71 41 c40 22 78 40 85 40 8 0 49 -17 92 -39 43 -21 103 -46 134
-55 l56 -16 23 -81 c28 -97 31 -99 174 -99 163 0 158 -3 185 96 l23 84 57 16
c31 9 91 34 134 55 43 22 84 39 91 39 7 0 46 -18 86 -40 l72 -40 49 41 c65 55
159 159 159 177 0 15 -40 93 -52 102 -4 3 -11 17 -16 30 -8 20 -3 37 23 86 19
34 44 97 58 140 l25 79 78 21 c100 26 104 34 103 174 -2 166 1 161 -97 185
l-82 20 -24 75 c-13 41 -38 102 -55 135 -17 33 -31 66 -31 74 0 7 17 44 37 82
44 82 44 85 -61 188 -113 113 -102 109 -196 59 -66 -36 -82 -41 -97 -31 -34
23 -123 62 -192 84 l-68 22 -24 86 -24 86 -153 3 c-117 2 -153 0 -156 -10z
m322 -543 c110 -35 196 -98 271 -200 206 -279 77 -691 -254 -814 -129 -48
-305 -37 -433 28 -96 48 -197 156 -243 256 -92 203 -46 439 115 600 110 109
217 154 373 154 71 1 110 -5 171 -24z"/>
<path d="M496 3723 c-3 -10 -15 -63 -26 -118 -12 -55 -35 -163 -51 -240 -16
-77 -38 -183 -49 -235 -11 -52 -33 -158 -49 -235 -16 -77 -63 -302 -105 -500
-41 -198 -91 -435 -111 -528 -19 -92 -35 -172 -35 -177 0 -7 76 -9 212 -8
l213 3 16 85 c19 97 57 278 173 830 25 118 68 325 96 460 107 513 121 576 130
610 21 75 34 70 -199 70 -191 0 -210 -2 -215 -17z"/>
<path d="M1325 3728 c-2 -7 -14 -62 -25 -123 -12 -60 -37 -180 -55 -265 -19
-85 -64 -299 -100 -475 -37 -176 -80 -383 -96 -460 -17 -77 -39 -183 -49 -235
-32 -162 -68 -332 -84 -400 -9 -36 -16 -71 -16 -78 0 -10 43 -12 197 -10 l197
3 17 80 c9 44 33 159 53 255 50 234 87 412 141 670 59 289 76 364 79 367 2 2
28 -59 58 -134 31 -76 131 -325 223 -553 92 -228 191 -476 221 -550 l53 -135
199 -3 199 -2 11 52 c6 29 25 118 42 198 17 80 39 188 50 240 11 52 33 160 50
240 43 204 178 847 200 955 41 203 71 341 76 358 5 16 -9 17 -194 17 l-199 0
-6 -32 c-3 -18 -20 -98 -37 -178 -17 -80 -39 -188 -50 -240 -10 -52 -33 -160
-50 -240 -17 -80 -51 -239 -75 -355 -66 -316 -66 -318 -75 -308 -8 8 -55 123
-275 668 -51 127 -125 309 -165 405 -39 96 -80 199 -91 228 l-20 52 -200 0
c-151 0 -201 -3 -204 -12z"/>
<path d="M3406 3718 c-3 -13 -12 -54 -20 -93 -8 -38 -35 -169 -61 -290 -25
-121 -52 -249 -60 -285 -8 -36 -30 -141 -49 -235 -19 -93 -53 -255 -76 -360
-22 -104 -59 -280 -81 -390 -22 -110 -49 -236 -60 -280 -10 -44 -19 -86 -19
-94 0 -11 80 -13 498 -8 287 3 526 10 566 16 111 18 278 78 365 132 174 107
312 271 415 489 81 174 116 349 116 573 0 365 -141 635 -398 766 -135 69 -247
81 -733 81 l-399 0 -4 -22z m867 -344 c184 -74 265 -272 237 -581 -15 -172
-47 -285 -117 -413 -110 -203 -254 -322 -422 -349 -36 -6 -161 -14 -278 -17
l-213 -7 0 25 c0 14 22 131 50 259 120 564 230 1095 230 1107 0 2 105 2 233 0
199 -4 239 -7 280 -24z"/>
<path d="M5485 3728 c-3 -7 -14 -59 -25 -115 -11 -57 -24 -122 -30 -145 -5
-24 -48 -227 -95 -453 -47 -225 -95 -457 -107 -515 -25 -122 -30 -317 -9 -390
31 -106 78 -187 152 -262 86 -86 173 -135 299 -170 75 -20 108 -23 275 -23
168 0 200 3 280 24 88 23 226 85 275 123 254 200 321 361 490 1198 18 85 45
218 61 295 55 261 80 380 86 413 l6 32 -212 0 c-116 0 -211 -2 -211 -6 0 -3
-16 -78 -35 -167 -19 -89 -44 -205 -55 -257 -195 -923 -209 -980 -258 -1079
-58 -117 -152 -189 -279 -216 -198 -42 -368 9 -446 135 -8 14 -20 51 -26 84
-11 62 -6 94 79 496 17 80 51 242 75 360 79 381 85 413 110 526 14 61 25 114
25 118 0 3 -95 6 -210 6 -159 0 -212 -3 -215 -12z"/>
<path d="M9357 3713 c-2 -16 -16 -86 -31 -156 -14 -71 -26 -135 -26 -143 0
-12 47 -14 294 -14 162 0 297 -4 300 -8 3 -4 -2 -35 -10 -68 -13 -56 -159
-749 -264 -1254 -27 -129 -56 -264 -64 -300 -9 -36 -16 -71 -16 -78 0 -10 46
-12 212 -10 l212 3 8 35 c4 19 21 103 38 185 17 83 40 191 50 240 31 146 108
512 162 770 27 132 60 292 74 355 13 63 24 118 24 123 0 4 135 7 300 7 l300 0
5 23 c9 39 65 307 65 312 0 3 -366 5 -814 5 l-814 0 -5 -27z"/>
<path d="M11266 3728 c-2 -7 -18 -83 -36 -168 -31 -153 -54 -261 -104 -495
-86 -407 -286 -1365 -286 -1374 0 -8 61 -11 211 -9 l212 3 24 115 c13 63 30
147 38 185 8 39 37 177 65 308 27 132 50 241 50 243 0 18 319 -10 362 -32 106
-54 186 -197 358 -644 l67 -175 227 -3 c124 -1 226 -1 226 1 0 2 -22 57 -49
123 -142 349 -274 597 -374 701 -23 24 -38 45 -36 48 3 2 49 14 103 24 252 51
429 202 498 426 28 90 30 267 5 364 -47 177 -163 296 -335 343 -74 21 -101 22
-650 26 -467 3 -573 1 -576 -10z m1027 -349 c47 -16 102 -64 116 -102 16 -41
13 -128 -4 -178 -23 -63 -60 -113 -119 -157 -96 -73 -183 -89 -533 -98 -226
-7 -243 -6 -243 10 0 9 25 134 55 278 30 143 55 263 55 265 0 3 143 3 318 0
226 -3 328 -8 355 -18z"/>
<path d="M13080 3733 c0 -5 38 -91 84 -193 46 -102 130 -286 186 -410 56 -124
107 -238 115 -255 162 -356 176 -392 171 -415 -9 -43 -116 -561 -136 -662 -11
-53 -20 -101 -20 -107 0 -8 64 -11 209 -11 l208 0 11 53 c6 28 42 199 80 380
78 367 59 320 216 532 32 44 72 98 88 120 16 22 67 92 113 155 47 63 91 124
99 135 14 19 141 193 296 405 42 58 104 143 138 190 l61 85 -242 3 c-241 2
-242 2 -259 -20 -10 -13 -64 -88 -119 -168 -56 -80 -161 -228 -234 -330 -72
-102 -153 -222 -181 -267 -27 -45 -52 -83 -55 -83 -6 0 -5 -4 -113 250 -65
154 -107 249 -239 547 l-32 73 -222 0 c-123 0 -223 -3 -223 -7z"/>
<path d="M16033 3662 c-26 -32 -96 -119 -154 -193 -137 -172 -345 -433 -459
-574 -189 -235 -310 -389 -310 -396 0 -4 92 -8 204 -8 l204 -2 74 93 c41 51
103 131 138 177 57 72 242 309 299 381 11 13 22 22 24 20 3 -3 -5 -79 -18
-170 -13 -91 -33 -239 -45 -329 -12 -90 -25 -173 -29 -183 -6 -18 -26 -19
-443 -21 -240 -1 -439 -5 -443 -9 -6 -6 -54 -302 -55 -335 0 -10 96 -13 445
-13 245 0 445 -2 445 -3 0 -2 -11 -84 -25 -183 -14 -98 -25 -189 -25 -201 l0
-23 205 0 205 0 0 28 c0 15 11 104 25 197 13 94 25 173 25 177 0 4 60 9 133
10 l132 3 6 55 c4 30 14 102 23 159 24 157 37 141 -115 141 -131 0 -131 0
-126 23 4 12 17 105 31 207 39 283 135 961 141 998 l6 32 -235 0 -235 0 -48
-58z m320 -24 c22 -12 53 -45 74 -82 21 -36 16 -119 -10 -157 -28 -42 -91 -79
-135 -79 -37 0 -97 23 -125 48 -80 73 -51 229 52 274 26 11 121 9 144 -4z
m-109 -1315 c73 -73 9 -197 -91 -178 -60 11 -93 61 -85 127 10 77 118 109 176
51z"/>
<path d="M16232 3543 c-32 -27 -37 -64 -12 -96 43 -54 123 -25 123 45 0 57
-67 88 -111 51z"/>
<path d="M16713 1885 c-66 -28 -92 -118 -53 -182 50 -83 170 -83 220 0 68 111
-46 235 -167 182z"/>
<path d="M212 1535 c2 -3 127 -14 276 -25 150 -11 395 -29 544 -40 150 -11
336 -25 413 -30 77 -5 196 -14 265 -20 128 -11 842 -63 1100 -80 80 -6 197
-15 260 -20 63 -5 248 -19 410 -30 162 -11 374 -28 470 -38 163 -16 691 -17
7410 -20 3979 -1 7254 0 7278 3 l43 6 -3 147 -3 147 -9234 3 c-5079 1 -9232 0
-9229 -3z"/>
<path d="M7685 984 c164 -13 388 -29 795 -59 107 -8 319 -23 470 -35 151 -11
370 -27 485 -35 116 -8 359 -26 540 -39 182 -14 427 -32 545 -41 118 -9 298
-23 398 -31 156 -12 759 -14 3968 -14 l3785 0 -3 133 -3 132 -5575 1 c-4714 1
-5549 0 -5405 -12z"/>
<path d="M14560 474 c91 -7 381 -30 645 -49 264 -20 532 -40 595 -45 63 -6
333 -26 600 -45 267 -19 539 -39 605 -45 66 -6 336 -26 600 -45 264 -19 563
-42 665 -50 102 -8 236 -18 298 -21 l112 -7 0 161 0 162 -2142 -1 c-1879 -1
-2123 -3 -1978 -15z"/>
</g>
</svg>
