<?xml version="1.0" encoding="utf-8"?>
<!-- Generator: Adobe Illustrator 19.0.0, SVG Export Plug-In . SVG Version: 6.00 Build 0)  -->
<svg version="1.1" xmlns="http://www.w3.org/2000/svg" xmlns:xlink="http://www.w3.org/1999/xlink" x="0px" y="0px"
	 viewBox="0 0 309.5 98.5" style="enable-background:new 0 0 309.5 98.5;" xml:space="preserve">
<style type="text/css">
	.st0{display:none;}
	.st1{display:inline;fill:#B33636;}
	.st2{display:inline;}
	.st3{clip-path:url(#XMLID_76_);}
	.st4{clip-path:url(#XMLID_77_);}
	.st5{filter:url(#Adobe_OpacityMaskFilter);}
	.st6{enable-background:new    ;}
	.st7{clip-path:url(#XMLID_78_);mask:url(#XMLID_79_);}
	.st8{clip-path:url(#XMLID_80_);fill:#4A4B4C;}
	.st9{filter:url(#Adobe_OpacityMaskFilter_1_);}
	.st10{clip-path:url(#XMLID_78_);}
	.st11{clip-path:url(#XMLID_78_);fill:#FFFFFF;}
	.st12{clip-path:url(#XMLID_78_);mask:url(#XMLID_81_);}
	.st13{clip-path:url(#XMLID_82_);fill:#4A4B4C;}
	.st14{filter:url(#Adobe_OpacityMaskFilter_2_);}
	.st15{clip-path:url(#XMLID_78_);mask:url(#XMLID_83_);}
	.st16{clip-path:url(#XMLID_84_);fill:#4A4B4C;}
	.st17{filter:url(#Adobe_OpacityMaskFilter_3_);}
	.st18{clip-path:url(#XMLID_78_);mask:url(#XMLID_85_);}
	.st19{clip-path:url(#XMLID_86_);fill:#4A4B4C;}
	.st20{filter:url(#Adobe_OpacityMaskFilter_4_);}
	.st21{clip-path:url(#XMLID_78_);mask:url(#XMLID_87_);}
	.st22{clip-path:url(#XMLID_88_);fill:#4A4B4C;}
	.st23{fill:#FFFFFF;}
</style>
<g id="Layer_4" class="st0">
	<rect id="XMLID_2_" x="53.2" y="21.3" class="st1" width="158.3" height="65.4"/>
</g>
<g id="Layer_3" class="st0">
	<g id="XMLID_3_" class="st2">
		<g id="XMLID_4_">
			<defs>
				<rect id="XMLID_5_" x="54.2" y="21.6" width="157.2" height="50.1"/>
			</defs>
			<clipPath id="XMLID_76_">
				<use xlink:href="#XMLID_5_"  style="overflow:visible;"/>
			</clipPath>
			<g id="XMLID_6_" class="st3">
				<defs>
					<rect id="XMLID_7_" x="54.2" y="21.6" width="157.2" height="50.1"/>
				</defs>
				<clipPath id="XMLID_77_">
					<use xlink:href="#XMLID_7_"  style="overflow:visible;"/>
				</clipPath>
				<g id="XMLID_8_" class="st4">
					<defs>
						<rect id="XMLID_9_" x="54.2" y="21.6" width="157.2" height="50.1"/>
					</defs>
					<clipPath id="XMLID_78_">
						<use xlink:href="#XMLID_9_"  style="overflow:visible;"/>
					</clipPath>
					<defs>
						<filter id="Adobe_OpacityMaskFilter" filterUnits="userSpaceOnUse" x="54.2" y="22.2" width="62.3" height="49.4">
							<feFlood  style="flood-color:white;flood-opacity:1" result="back"/>
							<feBlend  in="SourceGraphic" in2="back" mode="normal"/>
						</filter>
					</defs>
					<mask maskUnits="userSpaceOnUse" x="54.2" y="22.2" width="62.3" height="49.4" id="XMLID_79_">
						<g id="XMLID_51_" class="st5">
							<g id="XMLID_52_" class="st6">
							</g>
						</g>
					</mask>
					<g id="XMLID_53_" class="st7">
						<g id="XMLID_54_">
							<defs>
								<rect id="XMLID_55_" x="54.2" y="22.2" width="62.3" height="49.4"/>
							</defs>
							<clipPath id="XMLID_80_">
								<use xlink:href="#XMLID_55_"  style="overflow:visible;"/>
							</clipPath>
							<polygon id="XMLID_56_" class="st8" points="116.6,22.2 108.3,71.6 96.7,71.6 103.7,30.3 83.7,71.6 77.1,71.6 70.5,29.9 
								63.5,71.6 54.2,71.6 62.5,22.2 79.8,22.2 84.1,52.4 98.6,22.2 							"/>
						</g>
					</g>
					<defs>
						<filter id="Adobe_OpacityMaskFilter_1_" filterUnits="userSpaceOnUse" x="173.7" y="21.6" width="37.7" height="40">
							
								<feColorMatrix  type="matrix" values="-1 0 0 0 1  0 -1 0 0 1  0 0 -1 0 1  0 0 0 1 0" color-interpolation-filters="sRGB" result="source"/>
							<feFlood  style="flood-color:white;flood-opacity:1" result="back"/>
							<feBlend  in="source" in2="back" mode="normal"/>
						</filter>
					</defs>
					<mask maskUnits="userSpaceOnUse" x="173.7" y="21.6" width="37.7" height="40" id="XMLID_81_">
						<g id="XMLID_43_" class="st9">
							<rect id="XMLID_46_" x="173.7" y="21.6" class="st10" width="37.7" height="40"/>
							<g id="XMLID_44_" class="st6">
								<rect id="XMLID_45_" x="178.3" y="28.9" class="st11" width="11.2" height="2.5"/>
							</g>
						</g>
					</mask>
					<g id="XMLID_47_" class="st12">
						<g id="XMLID_48_">
							<defs>
								<rect id="XMLID_49_" x="173.7" y="21.6" width="37.7" height="40"/>
							</defs>
							<clipPath id="XMLID_82_">
								<use xlink:href="#XMLID_49_"  style="overflow:visible;"/>
							</clipPath>
							<path id="XMLID_50_" class="st13" d="M211.5,21.6L198.8,36l7.8,25.6h-9.5L192,43l-7.9,9l-1.6,9.6h-8.8l6.7-40h8.8l-3.2,18.8
								l1.3-1.6c0.7-0.9,1.4-1.7,1.9-2.4l12.8-14.8H211.5z"/>
						</g>
					</g>
					<defs>
						<filter id="Adobe_OpacityMaskFilter_2_" filterUnits="userSpaceOnUse" x="112.4" y="21.6" width="64.6" height="40.7">
							<feFlood  style="flood-color:white;flood-opacity:1" result="back"/>
							<feBlend  in="SourceGraphic" in2="back" mode="normal"/>
						</filter>
					</defs>
					<mask maskUnits="userSpaceOnUse" x="112.4" y="21.6" width="64.6" height="40.7" id="XMLID_83_">
						<g id="XMLID_34_" class="st14">
							<g id="XMLID_35_" class="st6">
							</g>
						</g>
					</mask>
					<g id="XMLID_36_" class="st15">
						<g id="XMLID_37_">
							<defs>
								<rect id="XMLID_38_" x="112.4" y="21.6" width="64.6" height="40.7"/>
							</defs>
							<clipPath id="XMLID_84_">
								<use xlink:href="#XMLID_38_"  style="overflow:visible;"/>
							</clipPath>
							<path id="XMLID_40_" class="st16" d="M149.1,61.6h-9.5l-1.3-8.8h-13.4l-3.8,8.8h-8.7l19.1-40h10.9L149.1,61.6z M127.9,45.9
								h9.3l-2.3-16L127.9,45.9z"/>
							<path id="XMLID_39_" class="st16" d="M176.9,21.6l-4.6,27.8c-0.6,3.3-1.3,5.7-2.1,7.3c-0.8,1.5-2.3,2.9-4.4,4
								c-2.1,1.1-4.9,1.7-8.4,1.7c-2,0-4.2-0.2-6.6-0.7l1.1-7.1c1.4,0.3,2.7,0.4,3.9,0.4c2.4,0,4-0.3,5-1c0.9-0.7,1.5-1.5,1.8-2.4
								c0.3-1,0.8-3.8,1.6-8.5l3.6-21.4H176.9z"/>
						</g>
					</g>
					<defs>
						<filter id="Adobe_OpacityMaskFilter_3_" filterUnits="userSpaceOnUse" x="114.8" y="64.6" width="90.5" height="7">
							<feFlood  style="flood-color:white;flood-opacity:1" result="back"/>
							<feBlend  in="SourceGraphic" in2="back" mode="normal"/>
						</filter>
					</defs>
					<mask maskUnits="userSpaceOnUse" x="114.8" y="64.6" width="90.5" height="7" id="XMLID_85_">
						<g id="XMLID_17_" class="st17">
							<g id="XMLID_18_" class="st6">
							</g>
						</g>
					</mask>
					<g id="XMLID_19_" class="st18">
						<g id="XMLID_20_">
							<defs>
								<rect id="XMLID_26_" x="114.8" y="64.6" width="90.5" height="7"/>
							</defs>
							<clipPath id="XMLID_86_">
								<use xlink:href="#XMLID_26_"  style="overflow:visible;"/>
							</clipPath>
							<path id="XMLID_33_" class="st19" d="M121,66.2l-1.6,0.4c-0.2-0.5-0.7-0.8-1.3-0.8c-0.7,0-1.1,0.2-1.1,0.6
								c0,0.2,0.1,0.3,0.2,0.4c0.1,0.1,0.4,0.2,0.9,0.3c0.8,0.1,1.4,0.3,1.7,0.4c0.4,0.1,0.7,0.4,0.9,0.7c0.3,0.3,0.4,0.7,0.4,1.1
								c0,0.6-0.3,1.1-0.8,1.6c-0.5,0.4-1.3,0.7-2.4,0.7c-0.8,0-1.5-0.2-2-0.5c-0.6-0.3-0.9-0.8-1.1-1.4l1.7-0.3
								c0.2,0.6,0.7,0.9,1.6,0.9c0.4,0,0.7-0.1,0.9-0.2c0.2-0.1,0.3-0.3,0.3-0.5c0-0.2-0.1-0.4-0.3-0.5c-0.2-0.1-0.5-0.2-1.1-0.3
								c-1-0.2-1.7-0.4-2.1-0.7c-0.4-0.3-0.6-0.8-0.6-1.4c0-0.6,0.3-1.1,0.8-1.5c0.5-0.4,1.2-0.6,2.1-0.6
								C119.6,64.6,120.6,65.2,121,66.2"/>
							<polygon id="XMLID_32_" class="st19" points="134.9,64.7 132.5,68.6 132.5,71.5 130.6,71.5 130.6,68.6 128.2,64.7 
								130.3,64.7 131.8,67.3 133.3,64.7 							"/>
							<path id="XMLID_31_" class="st19" d="M147.7,66.2l-1.6,0.4c-0.2-0.5-0.7-0.8-1.3-0.8c-0.7,0-1.1,0.2-1.1,0.6
								c0,0.2,0.1,0.3,0.2,0.4c0.1,0.1,0.4,0.2,0.9,0.3c0.8,0.1,1.4,0.3,1.7,0.4c0.4,0.1,0.7,0.4,0.9,0.7c0.3,0.3,0.4,0.7,0.4,1.1
								c0,0.6-0.3,1.1-0.8,1.6c-0.5,0.4-1.3,0.7-2.4,0.7c-0.8,0-1.5-0.2-2-0.5c-0.6-0.3-0.9-0.8-1.1-1.4l1.7-0.3
								c0.2,0.6,0.7,0.9,1.6,0.9c0.4,0,0.7-0.1,0.9-0.2c0.2-0.1,0.3-0.3,0.3-0.5c0-0.2-0.1-0.4-0.3-0.5c-0.2-0.1-0.5-0.2-1.1-0.3
								c-1-0.2-1.7-0.4-2.1-0.7c-0.4-0.3-0.6-0.8-0.6-1.4c0-0.6,0.3-1.1,0.8-1.5c0.5-0.4,1.2-0.6,2.1-0.6
								C146.3,64.6,147.3,65.2,147.7,66.2"/>
							<polygon id="XMLID_30_" class="st19" points="161.2,64.7 161.2,66.1 159.2,66.1 159.2,71.5 157.4,71.5 157.4,66.1 
								155.4,66.1 155.4,64.7 							"/>
							<polygon id="XMLID_29_" class="st19" points="174.5,66 170.8,66 170.8,67.4 173.7,67.4 173.7,68.7 170.8,68.7 170.8,70.2 
								174.5,70.2 174.5,71.5 169,71.5 169,64.7 174.5,64.7 							"/>
							<polygon id="XMLID_28_" class="st19" points="186.1,71.5 184.2,66 184.2,71.5 182.7,71.5 182.7,64.7 185.5,64.7 186.9,68.8 
								188.3,64.7 191.2,64.7 191.2,71.5 189.3,71.5 189.3,66 187.4,71.5 							"/>
							<path id="XMLID_27_" class="st19" d="M205.1,66.2l-1.6,0.4c-0.2-0.5-0.7-0.8-1.3-0.8c-0.7,0-1.1,0.2-1.1,0.6
								c0,0.2,0.1,0.3,0.2,0.4c0.1,0.1,0.4,0.2,0.9,0.3c0.8,0.1,1.4,0.3,1.7,0.4c0.4,0.1,0.7,0.4,0.9,0.7c0.3,0.3,0.4,0.7,0.4,1.1
								c0,0.6-0.3,1.1-0.8,1.6c-0.5,0.4-1.3,0.7-2.4,0.7c-0.8,0-1.5-0.2-2-0.5c-0.6-0.3-0.9-0.8-1.1-1.4l1.7-0.3
								c0.2,0.6,0.7,0.9,1.6,0.9c0.4,0,0.7-0.1,0.9-0.2c0.2-0.1,0.3-0.3,0.3-0.5c0-0.2-0.1-0.4-0.3-0.5c-0.2-0.1-0.5-0.2-1.1-0.3
								c-1-0.2-1.7-0.4-2.1-0.7c-0.4-0.3-0.6-0.8-0.6-1.4c0-0.6,0.3-1.1,0.8-1.5c0.5-0.4,1.2-0.6,2.1-0.6
								C203.7,64.6,204.7,65.2,205.1,66.2"/>
						</g>
					</g>
					<defs>
						<filter id="Adobe_OpacityMaskFilter_4_" filterUnits="userSpaceOnUse" x="207" y="69.4" width="3.2" height="1.8">
							<feFlood  style="flood-color:white;flood-opacity:1" result="back"/>
							<feBlend  in="SourceGraphic" in2="back" mode="normal"/>
						</filter>
					</defs>
					<mask maskUnits="userSpaceOnUse" x="207" y="69.4" width="3.2" height="1.8" id="XMLID_87_">
						<g id="XMLID_10_" class="st20">
							<g id="XMLID_11_" class="st6">
							</g>
						</g>
					</mask>
					<g id="XMLID_12_" class="st21">
						<g id="XMLID_13_">
							<defs>
								<rect id="XMLID_14_" x="207" y="69.4" width="3.2" height="1.8"/>
							</defs>
							<clipPath id="XMLID_88_">
								<use xlink:href="#XMLID_14_"  style="overflow:visible;"/>
							</clipPath>
							<polygon id="XMLID_16_" class="st22" points="207,69.6 207,69.4 208,69.4 208,69.6 207.6,69.6 207.6,71.3 207.4,71.3 
								207.4,69.6 							"/>
							<polygon id="XMLID_15_" class="st22" points="208.2,71.3 208.4,69.4 208.5,69.4 209.2,70.9 209.9,69.4 210,69.4 210.2,71.3 
								210.1,71.3 209.9,70 209.2,71.3 209.2,71.3 208.5,69.9 208.4,71.3 							"/>
						</g>
					</g>
				</g>
			</g>
		</g>
	</g>
</g>
<g id="Layer_2">
	<path id="XMLID_69_" class="st23" d="M152.4,0L115,78.4h17l7.5-17.2h26.3l2.5,17.2H187L173.8,0H152.4z M145.5,47.5l13.7-31.3
		l4.6,31.3H145.5z"/>
	<path id="XMLID_70_" class="st23" d="M224.1,0L217,41.9c-1.5,9.2-2.6,14.8-3.1,16.6c-0.6,1.9-1.7,3.5-3.6,4.7s-5.1,1.9-9.7,1.9
		c-2.4,0-5-0.2-7.6-0.7l-2.2,13.9c4.6,0.9,8.9,1.3,12.9,1.3c6.7,0,12.2-1.1,16.4-3.3c4.2-2.2,7.1-4.8,8.6-7.8c1.6-3,2.9-7.7,4-14.2
		L241.8,0H224.1z"/>
	<polygon id="XMLID_71_" class="st23" points="266,0 248.7,0 246.3,14.4 263.6,14.4 	"/>
	<path id="XMLID_72_" class="st23" d="M309.5,0h-18.4l-25.1,29c-1.1,1.3-2.3,2.8-3.7,4.6l-2.5,3.2l3-17.6h-17.3l-9.9,59.2h17.2
		l3.2-18.8L271.4,42l9.9,36.4h18.6l-15.2-50.2L309.5,0z"/>
	<g id="XMLID_23_">
		<path id="XMLID_149_" class="st23" d="M124.1,0l-16.4,98.3h-23l13.7-82.2L58.7,98.3H45.6L32.4,15.2L18.5,98.3H0L16.4,0h34.4
			l8.7,60.1L88.4,0H124.1z"/>
	</g>
	<g id="XMLID_24_">
		<path id="XMLID_25_" class="st23" d="M131.3,87.7l-3,0.9c-0.4-1.1-1.2-1.6-2.5-1.6c-1.4,0-2.1,0.4-2.1,1.2c0,0.3,0.1,0.6,0.4,0.8
			c0.3,0.2,0.8,0.4,1.7,0.6c1.5,0.3,2.6,0.6,3.3,0.8c0.7,0.3,1.3,0.7,1.8,1.4c0.5,0.6,0.7,1.3,0.7,2.1c0,1.2-0.5,2.3-1.6,3.2
			c-1,0.9-2.6,1.3-4.6,1.3c-1.5,0-2.8-0.3-3.9-0.9c-1.1-0.6-1.8-1.6-2.1-2.8l3.2-0.7c0.4,1.3,1.4,1.9,3,1.9c0.8,0,1.4-0.1,1.8-0.4
			c0.4-0.3,0.6-0.6,0.6-1c0-0.4-0.2-0.7-0.5-0.9s-1-0.4-2.1-0.6c-1.9-0.4-3.2-0.8-4-1.5c-0.8-0.6-1.2-1.5-1.2-2.7
			c0-1.2,0.5-2.2,1.4-3c1-0.8,2.3-1.2,3.9-1.2C128.6,84.5,130.5,85.6,131.3,87.7z"/>
		<path id="XMLID_137_" class="st23" d="M159,84.7l-4.7,7.8v5.7h-3.5v-5.7l-4.7-7.8h4l2.8,5.1l2.8-5.1H159z"/>
		<path id="XMLID_139_" class="st23" d="M184.5,87.7l-3,0.9c-0.4-1.1-1.2-1.6-2.5-1.6c-1.4,0-2.1,0.4-2.1,1.2c0,0.3,0.1,0.6,0.4,0.8
			c0.3,0.2,0.8,0.4,1.7,0.6c1.5,0.3,2.6,0.6,3.3,0.8c0.7,0.3,1.3,0.7,1.8,1.4s0.7,1.3,0.7,2.1c0,1.2-0.5,2.3-1.6,3.2
			c-1,0.9-2.6,1.3-4.6,1.3c-1.5,0-2.8-0.3-3.9-0.9c-1.1-0.6-1.8-1.6-2.1-2.8l3.2-0.7c0.4,1.3,1.4,1.9,3,1.9c0.8,0,1.4-0.1,1.8-0.4
			c0.4-0.3,0.6-0.6,0.6-1c0-0.4-0.2-0.7-0.5-0.9c-0.4-0.2-1-0.4-2.1-0.6c-1.9-0.4-3.2-0.8-4-1.5c-0.8-0.6-1.2-1.5-1.2-2.7
			c0-1.2,0.5-2.2,1.4-3c1-0.8,2.3-1.2,3.9-1.2C181.8,84.5,183.6,85.6,184.5,87.7z"/>
		<path id="XMLID_141_" class="st23" d="M210.9,84.7v2.7h-3.7v10.8h-3.5V87.4h-3.7v-2.7H210.9z"/>
		<path id="XMLID_143_" class="st23" d="M237.2,87.3h-7.1v2.8h5.6v2.5h-5.6v3h7.1v2.7h-10.6V84.7h10.6V87.3z"/>
		<path id="XMLID_145_" class="st23" d="M260.2,98.3l-3.7-11v11h-2.9V84.7h5.4l2.6,8.1l2.7-8.1h5.4v13.5h-3.5v-11l-3.7,11H260.2z"/>
		<path id="XMLID_147_" class="st23" d="M297.4,87.7l-3,0.9c-0.4-1.1-1.2-1.6-2.5-1.6c-1.4,0-2.1,0.4-2.1,1.2c0,0.3,0.1,0.6,0.4,0.8
			c0.3,0.2,0.8,0.4,1.7,0.6c1.5,0.3,2.6,0.6,3.3,0.8c0.7,0.3,1.3,0.7,1.8,1.4s0.7,1.3,0.7,2.1c0,1.2-0.5,2.3-1.6,3.2
			c-1,0.9-2.6,1.3-4.6,1.3c-1.5,0-2.8-0.3-3.9-0.9c-1.1-0.6-1.8-1.6-2.1-2.8l3.2-0.7c0.4,1.3,1.4,1.9,3,1.9c0.8,0,1.4-0.1,1.8-0.4
			c0.4-0.3,0.6-0.6,0.6-1c0-0.4-0.2-0.7-0.5-0.9c-0.4-0.2-1-0.4-2.1-0.6c-1.9-0.4-3.2-0.8-4-1.5c-0.8-0.6-1.2-1.5-1.2-2.7
			c0-1.2,0.5-2.2,1.4-3c1-0.8,2.3-1.2,3.9-1.2C294.7,84.5,296.5,85.6,297.4,87.7z"/>
	</g>
	<g id="XMLID_22_">
		<path id="XMLID_151_" class="st23" d="M301,94v-0.4h2V94h-0.8v3.3h-0.4V94H301z"/>
		<path id="XMLID_153_" class="st23" d="M303.4,97.3l0.5-3.6h0.1l1.5,3l1.5-3h0.1l0.5,3.6h-0.4l-0.4-2.6l-1.3,2.6h-0.1l-1.3-2.6
			l-0.4,2.6H303.4z"/>
	</g>
</g>
</svg>
